<svg width="60" height="60" viewBox="0 0 60 60" fill="none" xmlns="http://www.w3.org/2000/svg">
<g clip-path="url(#clip0_1_228)">
<path d="M38.4543 47.9088H5.5759C3.47063 47.9088 1.75781 46.1961 1.75781 44.0909V17.7879C1.75781 15.6826 3.47063 13.9699 5.5759 13.9699C6.06129 13.9699 6.4548 13.5764 6.4548 13.091C6.4548 12.6055 6.06129 12.2121 5.5759 12.2121C2.50137 12.2121 0 14.7134 0 17.7879V44.0909C0 47.1654 2.50137 49.6667 5.5759 49.6667H38.4543C38.9396 49.6667 39.3332 49.2733 39.3332 48.7877C39.3332 48.3025 38.9396 47.9088 38.4543 47.9088Z" fill="#897B32"/>
<path d="M54.424 12.2121H25.3027C24.8173 12.2121 24.4238 12.6055 24.4238 13.091C24.4238 13.5764 24.8173 13.9699 25.3027 13.9699H54.424C56.5292 13.9699 58.242 15.6826 58.242 17.7879V44.0909C58.242 46.1961 56.5292 47.9088 54.424 47.9088H53.4846C52.9992 47.9088 52.6057 48.3024 52.6057 48.7877C52.6057 49.2733 52.9992 49.6667 53.4846 49.6667H54.424C57.4985 49.6667 59.9999 47.1654 59.9999 44.0909V17.7879C59.9999 14.7134 57.4985 12.2121 54.424 12.2121V12.2121Z" fill="#897B32"/>
<path d="M9.3335 13.9699C11.9567 13.9699 14.091 16.104 14.091 18.7274C14.091 19.2128 14.4845 19.6063 14.9699 19.6063C15.4553 19.6063 15.8488 19.2128 15.8488 18.7274C15.8488 16.1041 17.983 13.9699 20.6062 13.9699C21.0916 13.9699 21.4851 13.5764 21.4851 13.091C21.4851 12.6055 21.0916 12.2121 20.6062 12.2121C17.983 12.2121 15.8488 10.0779 15.8488 7.45465C15.8488 6.96926 15.4553 6.57574 14.9699 6.57574C14.4845 6.57574 14.091 6.96926 14.091 7.45465C14.091 10.0779 11.9569 12.2121 9.3335 12.2121C8.84811 12.2121 8.45459 12.6055 8.45459 13.091C8.45459 13.5764 8.84811 13.9699 9.3335 13.9699V13.9699ZM14.9699 10.7201C15.5404 11.7012 16.3597 12.5204 17.3408 13.091C16.3597 13.6615 15.5404 14.4809 14.9699 15.4618C14.3993 14.4809 13.58 13.6615 12.599 13.091C13.5799 12.5204 14.3993 11.7012 14.9699 10.7201V10.7201Z" fill="#897B32"/>
<path d="M49.394 48.7575C47.8067 48.7575 46.5154 47.4661 46.5154 45.8789C46.5154 45.3935 46.1219 45 45.6365 45C45.1511 45 44.7576 45.3935 44.7576 45.8789C44.7576 47.4662 43.4662 48.7575 41.8789 48.7575C41.3935 48.7575 41 49.151 41 49.6364C41 50.1219 41.3935 50.5153 41.8789 50.5153C43.4662 50.5153 44.7576 51.8067 44.7576 53.394C44.7576 53.8794 45.1511 54.2729 45.6365 54.2729C46.1219 54.2729 46.5154 53.8794 46.5154 53.394C46.5154 51.8067 47.8068 50.5153 49.394 50.5153C49.8794 50.5153 50.2729 50.1219 50.2729 49.6364C50.2729 49.1511 49.8794 48.7575 49.394 48.7575ZM45.6364 50.6807C45.346 50.2796 44.9932 49.9268 44.5922 49.6364C44.993 49.346 45.346 48.9932 45.6364 48.5923C45.9268 48.9932 46.2796 49.3461 46.6807 49.6364C46.2796 49.9268 45.9268 50.2798 45.6364 50.6807Z" fill="#897B32"/>
<path d="M13.2759 22.5453C12.7905 22.5453 12.397 22.9389 12.397 23.4243V38.4418C12.397 38.8699 12.7054 39.2357 13.1273 39.3081C13.1883 39.3185 13.2767 39.3337 14.907 39.3337C15.6983 39.3337 16.8531 39.3301 18.544 39.3207C19.0294 39.318 19.4207 38.9223 19.418 38.4369C19.4153 37.9532 19.0224 37.5629 18.5392 37.5629C18.5376 37.5629 18.5358 37.5629 18.5342 37.5629C17.2014 37.5703 15.2498 37.5778 14.1549 37.5751V23.4243C14.1548 22.9389 13.7613 22.5453 13.2759 22.5453V22.5453Z" fill="#897B32"/>
<path d="M37.2863 39.173C37.4402 39.2814 37.6168 39.3335 37.7918 39.3335C38.068 39.3335 38.3399 39.2037 38.5111 38.9607L43.4622 31.9324L48.4062 38.9602C48.5773 39.2034 48.8494 39.3335 49.1258 39.3335C49.3005 39.3335 49.477 39.2815 49.6308 39.1733C50.0278 38.8941 50.1232 38.3457 49.8439 37.9488L44.5377 30.4059L49.0996 23.9304C49.379 23.5336 49.284 22.9853 48.8872 22.7057C48.4904 22.4261 47.9421 22.5212 47.6625 22.918L43.4633 28.8786L39.2705 22.9185C38.9911 22.5213 38.4429 22.4261 38.0458 22.7053C37.6488 22.9846 37.5534 23.5329 37.8327 23.9298L42.3879 30.4051L37.074 37.9482C36.7945 38.3452 36.8896 38.8935 37.2863 39.173V39.173Z" fill="#897B32"/>
<path d="M24.7423 38.4028C25.7063 39.0188 26.7971 39.3318 27.9847 39.3334H27.9946C29.0264 39.3334 29.9918 39.1106 30.8641 38.6714C33.0336 37.5788 34.1803 35.8791 34.1803 33.7559V23.4243C34.1803 22.9389 33.7868 22.5453 33.3014 22.5453C32.816 22.5453 32.4225 22.9389 32.4225 23.4243V33.7559C32.4225 35.211 31.6541 36.3054 30.0735 37.1014C29.4485 37.4162 28.7491 37.5757 27.9943 37.5756C27.9919 37.5756 27.9894 37.5756 27.987 37.5756C27.1393 37.5744 26.366 37.3543 25.6886 36.9214C24.3202 36.0472 23.7363 35.1036 23.7363 33.7666V23.4243C23.7363 22.9389 23.3428 22.5453 22.8574 22.5453C22.372 22.5453 21.9785 22.9389 21.9785 23.4243V33.7666C21.9786 35.6982 22.8826 37.2147 24.7423 38.4028V38.4028Z" fill="#897B32"/>
</g>
<defs>
<clipPath id="clip0_1_228">
<rect width="60" height="60" fill="white"/>
</clipPath>
</defs>
</svg>
